screens;
 
http://baypic.net/img-51758fd51faf8.html 
 
http://baypic.net/img-51758fd88b4de.html 
 
http://baypic.net/img-51758fdc4c2a4.html 

Format                                   : Windows Media
File size                                : 2.19 GiB
Duration                                 : 39mn 32s
Overall bit rate                         : 7 928 Kbps
Maximum Overall bit rate                 : 8 128 Kbps
Encoded date                             : UTC 2013-03-29 19:19:49.000

Video
ID                                       : 1
Format                                   : VC-1
Format profile                           : Main
Codec ID                                 : WMV3
Codec ID/Info                            : Windows Media Video 9
Codec ID/Hint                            : WMV3
Description of the codec                 : Windows Media Video 9 - CBR
Duration                                 : 39mn 32s
Bit rate                                 : 8 000 Kbps
Width                                    : 1 920 pixels
Height                                   : 1 080 pixels
Display aspect ratio                     : 16:9
Frame rate                               : 29.970 fps
Bit depth                                : 8 bits
Scan type                                : Progressive
Compression mode                         : Lossy
Bits/(Pixel*Frame)                       : 0.129
Stream size                              : 2.21 GiB

Audio
ID                                       : 2
Format                                   : WMA
Format version                           : Version 2
Codec ID                                 : 161
Codec ID/Info                            : Windows Media Audio
Description of the codec                 : Windows Media Audio 9 - 128 kbps, 44 kHz, stereo CBR
Duration                                 : 39mn 32s
Bit rate                                 : 128 Kbps
Channel(s)                               : 2 channels
Sampling rate                            : 44.1 KHz
Bit depth                                : 16 bits
Stream size                              : 36.2 MiB (2%)



